<?xml version="1.0" encoding="iso-8859-1"?>
<!-- Generator: Adobe Illustrator 19.0.0, SVG Export Plug-In . SVG Version: 6.00 Build 0)  -->
<svg version="1.1" id="Layer_1" xmlns="http://www.w3.org/2000/svg" xmlns:xlink="http://www.w3.org/1999/xlink" x="0px" y="0px"
	 viewBox="0 0 512 512" style="enable-background:new 0 0 512 512;" xml:space="preserve">
<path style="fill:#E8EDEE;" d="M0,361.931V79.448C0,54.731,19.421,35.31,44.138,35.31h423.724C492.579,35.31,512,54.731,512,79.448
	v282.483c0,24.717-19.421,44.138-44.138,44.138H44.138C19.421,406.069,0,386.648,0,361.931"/>
<path style="fill:#CBD4D8;" d="M57.379,70.621h397.241c12.359,0,22.069,9.71,22.069,22.069v256c0,12.359-9.71,22.069-22.069,22.069
	H57.379c-12.359,0-22.069-9.71-22.069-22.069v-256C35.31,80.331,45.021,70.621,57.379,70.621"/>
<path style="fill:#E8EDEE;" d="M229.517,220.69c0-44.138-35.31-79.448-79.448-79.448s-79.448,35.31-79.448,79.448
	s35.31,79.448,79.448,79.448S229.517,264.828,229.517,220.69"/>
<g>
	<path style="fill:#38454F;" d="M141.241,220.69c0-9.71-7.945-17.655-17.655-17.655s-17.655,7.945-17.655,17.655
		c0,9.71,7.945,17.655,17.655,17.655S141.241,230.4,141.241,220.69"/>
	<path style="fill:#38454F;" d="M194.207,220.69c0-9.71-7.945-17.655-17.655-17.655c-9.71,0-17.655,7.945-17.655,17.655
		c0,9.71,7.945,17.655,17.655,17.655C186.262,238.345,194.207,230.4,194.207,220.69"/>
</g>
<g>
	<path style="fill:#D3AA6E;" d="M150.069,141.241c-2.648,0-6.179,0-8.828,0.883v16.772c0,5.297,3.531,8.828,8.828,8.828
		s8.828-3.531,8.828-8.828v-16.772C156.248,141.241,152.717,141.241,150.069,141.241"/>
	<path style="fill:#D3AA6E;" d="M150.069,273.655c-5.297,0-8.828,3.531-8.828,8.828v16.772c2.648,0,6.179,0.883,8.828,0.883
		s6.179,0,8.828-0.883v-16.772C158.897,277.186,155.366,273.655,150.069,273.655"/>
</g>
<path style="fill:#546A79;" d="M441.379,220.69c0-44.138-35.31-79.448-79.448-79.448s-79.448,35.31-79.448,79.448
	s35.31,79.448,79.448,79.448S441.379,264.828,441.379,220.69"/>
<path d="M370.759,229.517h-17.655c-5.297,0-8.828-3.531-8.828-8.828s3.531-8.828,8.828-8.828h17.655
	c5.297,0,8.828,3.531,8.828,8.828S376.055,229.517,370.759,229.517z"/>
<path style="fill:#38454F;" d="M321.324,288.662c11.476,7.062,25.6,11.476,40.607,11.476s29.131-4.414,40.607-11.476
	c-7.062-45.021-7.062-90.924,0-135.945c-11.476-7.062-25.6-11.476-40.607-11.476s-29.131,4.414-40.607,11.476
	C328.386,197.738,328.386,243.641,321.324,288.662"/>
<path style="fill:#546A79;" d="M494.345,476.69c-2.648,0-4.414-0.883-6.179-2.648c-11.476-11.476-38.841-12.359-56.497-6.179
	c-30.014,11.476-62.676-1.766-73.269-29.131c-3.531-7.062-5.297-15.007-5.297-23.835V247.172c0-5.297,3.531-8.828,8.828-8.828
	s8.828,3.531,8.828,8.828v167.724c0,6.179,0.883,12.359,3.531,17.655c7.945,18.538,30.014,27.366,51.2,19.421
	c22.952-8.828,58.262-7.062,75.034,9.71c3.531,3.531,3.531,8.828,0,12.359C498.759,475.807,496.993,476.69,494.345,476.69"/>
<g>
</g>
<g>
</g>
<g>
</g>
<g>
</g>
<g>
</g>
<g>
</g>
<g>
</g>
<g>
</g>
<g>
</g>
<g>
</g>
<g>
</g>
<g>
</g>
<g>
</g>
<g>
</g>
<g>
</g>
</svg>
