<?xml version="1.0" encoding="iso-8859-1"?>
<!-- Generator: Adobe Illustrator 19.0.0, SVG Export Plug-In . SVG Version: 6.00 Build 0)  -->
<svg version="1.1" id="Layer_1" xmlns="http://www.w3.org/2000/svg" xmlns:xlink="http://www.w3.org/1999/xlink" x="0px" y="0px"
	 viewBox="0 0 512.001 512.001" style="enable-background:new 0 0 512.001 512.001;" xml:space="preserve">
<g>
	<path style="fill:#F95428;" d="M302.809,36.863c0-20.327-16.536-36.863-36.861-36.863s-36.861,16.536-36.861,36.863
		c0,4.019,3.258,7.276,7.276,7.276s7.276-3.257,7.276-7.276c0-12.302,10.009-22.31,22.31-22.31s22.309,10.009,22.309,22.31
		c0,17.135-6.673,33.244-18.788,45.362l-38.252,38.251c-2.082,2.081-2.703,5.21-1.578,7.929c1.126,2.719,3.778,4.491,6.721,4.491
		h59.172c4.017,0,7.276-3.257,7.276-7.276c0-4.019-3.258-7.276-7.276-7.276h-41.607l25.833-25.832
		C294.622,77.648,302.809,57.885,302.809,36.863z"/>
	<path style="fill:#F95428;" d="M386.219,79.525h-14.062V7.276c0-3.273-2.186-6.143-5.34-7.014
		c-3.156-0.871-6.502,0.473-8.181,3.284L311.146,83.07c-1.342,2.248-1.374,5.044-0.08,7.322c1.291,2.277,3.709,3.684,6.327,3.684
		h40.213v31.544c0,4.019,3.258,7.276,7.276,7.276c4.017,0,7.276-3.257,7.276-7.276V94.076h14.062c4.017,0,7.276-3.257,7.276-7.276
		S390.236,79.525,386.219,79.525z M357.605,33.651v45.875h-27.395L357.605,33.651z"/>
	<path style="fill:#F95428;" d="M427.695,296.475c-4.017,0-7.276-3.258-7.276-7.276v-12.145c0-28.035,10.135-55.121,28.538-76.267
		l19.718-22.657h-52.005c-4.017,0-7.276-3.258-7.276-7.276s3.258-7.276,7.276-7.276h67.981c2.852,0,5.44,1.666,6.622,4.26
		c1.181,2.595,0.737,5.641-1.134,7.792l-30.206,34.709c-16.098,18.498-24.965,42.191-24.965,66.714v12.145
		C434.971,293.218,431.713,296.475,427.695,296.475z"/>
</g>
<path style="fill:#4D4D4D;" d="M326.779,222.804c-1.861,0-3.724-0.711-5.144-2.131c-2.842-2.841-2.842-7.448,0-10.289
	L443.738,88.281c2.84-2.841,7.449-2.841,10.288,0c2.842,2.841,2.842,7.448,0,10.289L331.923,220.673
	C330.504,222.093,328.64,222.804,326.779,222.804z"/>
<path style="fill:#70E5CF;" d="M484.617,422.128l-28.205-18.802l-29.623-19.753l-0.338-0.222l-26.473-17.658l-23.685-15.782
	l-32.254,22.918l-8.216,5.834l-8.881,6.315l-18.425,13.113c-8.607-4.883-17.436-10.469-26.356-16.642
	c-15.405-10.651-31.096-23.022-46.46-36.526c-9.987-8.75-19.844-17.996-29.389-27.54c-32.736-32.736-61.89-69.053-80.706-102.205
	l13.1-18.439l6.303-8.868l5.859-8.23l22.918-32.241l-13.985-20.978l-19.793-29.686l-2.292-3.438l-21.251-31.876l-14.897-22.344
	l0.013-0.013L91.111,23.387L58.674,38.751l-8.906,4.219l-4.506,10.939l-33.568,81.527l24.22,41.173
	c0.677,1.146,1.354,2.278,2.044,3.438c0.885,1.484,1.784,2.982,2.696,4.466C83.599,255.31,145.02,327.175,212.705,387.959
	c14.897,13.372,30.093,26.212,45.457,38.387c13.061,10.326,26.251,20.183,39.481,29.467s26.499,18.021,39.741,26.108
	c2.097,1.276,4.18,2.578,6.263,3.815c1.146,0.69,2.292,1.38,3.438,2.044l41.173,24.22l81.527-33.569l10.939-4.506l4.219-8.906
	l15.365-32.437L484.617,422.128z"/>
<path style="fill:#35D8B9;" d="M374.571,487.782c-1.146-0.665-2.292-1.354-3.438-2.044c-2.083-1.237-4.166-2.539-6.263-3.815
	c-13.243-8.087-26.512-16.823-39.741-26.108c-13.229-9.285-26.421-19.142-39.481-29.467c-15.366-12.176-30.561-25.014-45.457-38.387
	C172.504,327.175,111.083,255.31,68.138,184.513c-0.912-1.484-1.81-2.982-2.696-4.466c-0.69-1.159-1.368-2.292-2.044-3.438
	l-24.219-41.173l33.569-81.527l4.506-10.939l8.906-4.219l11.556-5.474l-6.605-9.891L58.675,38.751l-8.906,4.219l-4.506,10.939
	l-33.569,81.527l24.22,41.173c0.677,1.146,1.354,2.278,2.044,3.438c0.885,1.484,1.784,2.982,2.696,4.466
	C83.599,255.31,145.02,327.175,212.705,387.959c14.897,13.372,30.093,26.212,45.457,38.387
	c13.061,10.326,26.251,20.183,39.481,29.467s26.499,18.021,39.741,26.108c2.097,1.276,4.18,2.578,6.263,3.815
	c1.146,0.69,2.292,1.38,3.438,2.044l41.173,24.22l16.167-6.657L374.571,487.782z"/>
<g>
	<polygon style="fill:#19BA9B;" points="150.866,179.643 145.006,187.873 138.703,196.741 81.136,108.754 45.263,53.909 
		49.767,42.97 58.674,38.751 	"/>
	<polygon style="fill:#19BA9B;" points="484.943,465.02 480.724,473.927 469.785,478.432 401.932,434.042 326.942,384.978 
		335.821,378.662 344.038,372.829 	"/>
</g>
<g>
</g>
<g>
</g>
<g>
</g>
<g>
</g>
<g>
</g>
<g>
</g>
<g>
</g>
<g>
</g>
<g>
</g>
<g>
</g>
<g>
</g>
<g>
</g>
<g>
</g>
<g>
</g>
<g>
</g>
</svg>
