<?xml version="1.0" encoding="iso-8859-1"?>
<!-- Generator: Adobe Illustrator 19.0.0, SVG Export Plug-In . SVG Version: 6.00 Build 0)  -->
<svg version="1.1" id="Layer_1" xmlns="http://www.w3.org/2000/svg" xmlns:xlink="http://www.w3.org/1999/xlink" x="0px" y="0px"
	 viewBox="0 0 511.999 511.999" style="enable-background:new 0 0 511.999 511.999;" xml:space="preserve">
<path style="fill:#73AFD6;" d="M504.219,374.265h-60.311c-4.297,0-7.781-3.484-7.781-7.781c0-4.297,3.484-7.781,7.781-7.781h49.524
	L403.308,87.608h-66.294c-4.297,0-7.781-3.484-7.781-7.781c0-4.297,3.484-7.781,7.781-7.781h71.907c3.351,0,6.327,2.146,7.384,5.326
	l95.297,286.657c0.788,2.373,0.389,4.98-1.074,7.007C509.068,373.063,506.72,374.265,504.219,374.265z"/>
<polygon style="fill:#174F79;" points="234.639,384.163 311.054,181.115 290.29,177.828 211.47,384.163 "/>
<g>
	<rect x="91.953" y="79.826" style="fill:#D7D5D9;" width="23.364" height="49.924"/>
	<rect x="153.849" y="79.826" style="fill:#D7D5D9;" width="23.364" height="49.924"/>
	<rect x="215.746" y="79.826" style="fill:#D7D5D9;" width="23.364" height="49.924"/>
	<rect x="277.642" y="79.826" style="fill:#D7D5D9;" width="23.364" height="49.924"/>
	<rect x="339.528" y="79.826" style="fill:#D7D5D9;" width="23.364" height="49.924"/>
</g>
<g>
	<path style="fill:#5D5D5D;" d="M25.373,413.115H8.28c-5.713,0-9.707-5.653-7.797-11.038l28.281-79.728
		c1.171-3.301,4.294-5.507,7.797-5.507h76.26c13.637,0,24.69,11.054,24.69,24.69v71.582h-26.009L25.373,413.115L25.373,413.115z"/>
	<polygon style="fill:#5D5D5D;" points="293.073,413.115 130.299,413.115 130.299,377.894 285.703,377.894 	"/>
</g>
<g>
	<path style="fill:#D7D5D9;" d="M354.447,338.172l-45.153-151.249h-235.4c-16.237,0-27.139-16.66-20.638-31.537l12.638-28.926
		H374.16l95.297,286.657h-59.838L354.447,338.172z"/>
	<path style="fill:#D7D5D9;" d="M76.057,316.843H36.56c-3.503,0-6.625,2.206-7.797,5.507l-8.434,23.775c21.971,0,55.727,0,55.727,0
		V316.843z"/>
</g>
<rect x="65.725" y="57.693" style="fill:#73AFD6;" width="325.459" height="29.916"/>
<circle style="fill:#3E3B43;" cx="69.337" cy="412.13" r="42.177"/>
<circle style="fill:#D7D5D9;" cx="69.337" cy="412.13" r="16.173"/>
<rect x="137.509" y="377.893" style="fill:#3E3B43;" width="57.29" height="35.222"/>
<g>
	<rect x="91.953" y="87.604" style="fill:#77757E;" width="23.364" height="10.885"/>
	<rect x="153.849" y="87.604" style="fill:#77757E;" width="23.364" height="10.885"/>
	<rect x="215.746" y="87.604" style="fill:#77757E;" width="23.364" height="10.885"/>
	<rect x="277.642" y="87.604" style="fill:#77757E;" width="23.364" height="10.885"/>
	<rect x="339.528" y="87.604" style="fill:#77757E;" width="23.364" height="10.885"/>
</g>
<polygon style="fill:#ACAAB1;" points="350.907,326.314 461.468,413.115 387.072,413.115 354.39,337.983 "/>
<path style="fill:#5D5D5D;" d="M302.717,413.115h-33.545c0-12.321,2.942-23.954,8.164-34.237
	c12.5-24.617,38.06-41.486,67.559-41.486c41.821,0,75.723,33.902,75.723,75.723h-33.545H302.717z"/>
<circle style="fill:#3E3B43;" cx="344.892" cy="412.13" r="42.177"/>
<circle style="fill:#D7D5D9;" cx="344.892" cy="412.13" r="16.173"/>
<rect x="390.925" y="72.042" style="fill:#174F79;" width="7.552" height="15.562"/>
<g>
</g>
<g>
</g>
<g>
</g>
<g>
</g>
<g>
</g>
<g>
</g>
<g>
</g>
<g>
</g>
<g>
</g>
<g>
</g>
<g>
</g>
<g>
</g>
<g>
</g>
<g>
</g>
<g>
</g>
</svg>
