<?xml version="1.0" encoding="iso-8859-1"?>
<!-- Generator: Adobe Illustrator 19.0.0, SVG Export Plug-In . SVG Version: 6.00 Build 0)  -->
<svg xmlns="http://www.w3.org/2000/svg" xmlns:xlink="http://www.w3.org/1999/xlink" version="1.1" id="Capa_1" x="0px" y="0px" viewBox="0 0 490 490" style="enable-background:new 0 0 490 490;" xml:space="preserve" width="512px" height="512px">
<path id="XMLID_861_" d="M488.416,278.293l-35-70c-2.54-5.082-7.734-8.292-13.416-8.292h-75c-8.284,0-15,6.716-15,15v95H190v-38.787  l125.606-125.606c2.929-2.929,4.394-6.768,4.394-10.606s-1.465-7.678-4.394-10.606l-120-120c0,0,0,0-0.002-0.002  C192.676,1.465,188.837,0,184.998,0c-0.081,0-0.162,0.001-0.242,0.002H15c-8.284,0-15,6.716-15,15v130c0,8.284,6.716,15,15,15h130  c8.284,0,15-6.716,15-15v-115h18.787l105,105l-115,115H15c-8.284,0-15,6.716-15,15v120c0,8.284,6.716,15,15,15h24.531  c-1.344,5.57-2.031,11.317-2.031,17.142C37.5,457.316,70.184,490,110.357,490s72.857-32.684,72.857-72.857  c0-5.825-0.688-11.572-2.032-17.142h127.635c-1.345,5.57-2.032,11.317-2.032,17.142c0,40.174,32.684,72.857,72.857,72.857  s72.857-32.684,72.857-72.857c0-5.938-0.714-11.793-2.109-17.464C472.672,397.008,490,377.99,490,355v-70  C490,282.672,489.458,280.376,488.416,278.293z M130,130.001H30v-100h100V130.001z M110.357,460  C86.726,460,67.5,440.775,67.5,417.143c0-5.959,1.22-11.775,3.567-17.144h78.579c2.349,5.37,3.568,11.186,3.568,17.144  C153.215,440.775,133.989,460,110.357,460z M30,370v-17.25v-72.749h130v45c0,8.284,6.716,15,15,15h175v12.75v17.249V370H30z   M379.643,460c-23.632,0-42.857-19.225-42.857-42.857c0-5.958,1.22-11.774,3.568-17.144h78.579  c2.348,5.369,3.567,11.185,3.567,17.144C422.5,440.775,403.274,460,379.643,460z M460,355c0,8.271-6.729,15-15,15h-65v-0.002  v-13.874V340h80V355z M460,310.001h-80v-80h50.729L460,288.542V310.001z" fill="#784626"/>
<g>
</g>
<g>
</g>
<g>
</g>
<g>
</g>
<g>
</g>
<g>
</g>
<g>
</g>
<g>
</g>
<g>
</g>
<g>
</g>
<g>
</g>
<g>
</g>
<g>
</g>
<g>
</g>
<g>
</g>
</svg>
